{
  "accessors": [
    {
      "bufferView": 2,
      "componentType": 5126,
      "count": 6052,
      "max": [
        3.93449330329895,
        3.93449330329895,
        4.333037376403809
      ],
      "min": [
        -3.93449330329895,
        -3.9344937801361084,
        -2.9919180870056152
      ],
      "type": "VEC3"
    },
    {
      "bufferView": 2,
      "byteOffset": 72624,
      "componentType": 5126,
      "count": 6052,
      "max": [
        1.0,
        1.0,
        0.9995272755622864
      ],
      "min": [
        -1.0,
        -1.0,
        -0.9999344944953918
      ],
      "type": "VEC3"
    },
    {
      "bufferView": 1,
      "componentType": 5126,
      "count": 6052,
      "max": [
        0.995643138885498,
        0.9633857607841492
      ],
      "min": [
        0.011431597173213959,
        0.011431580409407616
      ],
      "type": "VEC2"
    },
    {
      "bufferView": 1,
      "byteOffset": 48416,
      "componentType": 5126,
      "count": 6052,
      "max": [
        0.995643138885498,
        0.9633857607841492
      ],
      "min": [
        0.011431597173213959,
        0.011431580409407616
      ],
      "type": "VEC2"
    },
    {
      "bufferView": 0,
      "componentType": 5125,
      "count": 17082,
      "type": "SCALAR"
    }
  ],
  "asset": {
    "extras": {
      "author": "Tryc (https://sketchfab.com/Tryc)",
      "license": "SKETCHFAB Standard (https://sketchfab.com/licenses)",
      "source": "https://sketchfab.com/3d-models/gold-bag-free-21a30ce99099444cb470358b0c0ec458",
      "title": "gold bag (free)"
    },
    "generator": "Sketchfab-16.28.0",
    "version": "2.0"
  },
  "bufferViews": [
    {
      "buffer": 0,
      "byteLength": 68328,
      "name": "floatBufferViews",
      "target": 34963
    },
    {
      "buffer": 0,
      "byteLength": 96832,
      "byteOffset": 68328,
      "byteStride": 8,
      "name": "floatBufferViews",
      "target": 34962
    },
    {
      "buffer": 0,
      "byteLength": 145248,
      "byteOffset": 165160,
      "byteStride": 12,
      "name": "floatBufferViews",
      "target": 34962
    }
  ],
  "buffers": [
    {
      "byteLength": 310408,
      "uri": "scene.bin"
    }
  ],
  "images": [
    {
      "uri": "textures/goldbag_baseColor.png"
    },
    {
      "uri": "textures/goldbag_metallicRoughness.png"
    }
  ],
  "materials": [
    {
      "doubleSided": true,
      "name": "goldbag",
      "pbrMetallicRoughness": {
        "baseColorTexture": {
          "index": 0
        },
        "metallicRoughnessTexture": {
          "index": 1
        }
      }
    }
  ],
  "meshes": [
    {
      "name": "Cube_goldbag_0",
      "primitives": [
        {
          "attributes": {
            "NORMAL": 1,
            "POSITION": 0,
            "TEXCOORD_0": 2,
            "TEXCOORD_1": 3
          },
          "indices": 4,
          "material": 0,
          "mode": 4
        }
      ]
    }
  ],
  "nodes": [
    {
      "children": [
        1
      ],
      "matrix": [
        1.0,
        0.0,
        0.0,
        0.0,
        0.0,
        2.220446049250313e-16,
        -1.0,
        0.0,
        0.0,
        1.0,
        2.220446049250313e-16,
        0.0,
        0.0,
        0.0,
        0.0,
        1.0
      ],
      "name": "Sketchfab_model"
    },
    {
      "children": [
        2
      ],
      "matrix": [
        0.009999999776482582,
        0.0,
        0.0,
        0.0,
        0.0,
        0.0,
        0.009999999776482582,
        0.0,
        0.0,
        -0.009999999776482582,
        0.0,
        0.0,
        0.0,
        0.0,
        0.0,
        1.0
      ],
      "name": "goldbag.fbx"
    },
    {
      "children": [
        3
      ],
      "name": "RootNode"
    },
    {
      "children": [
        4
      ],
      "matrix": [
        20.0,
        0.0,
        0.0,
        0.0,
        0.0,
        -3.2584135878366283e-06,
        -19.999999999999737,
        0.0,
        0.0,
        19.999999999999737,
        -3.2584135878366283e-06,
        0.0,
        0.0,
        18.077077865600586,
        0.0,
        1.0
      ],
      "name": "Cube"
    },
    {
      "mesh": 0,
      "name": "Cube_goldbag_0"
    }
  ],
  "samplers": [
    {
      "magFilter": 9729,
      "minFilter": 9987,
      "wrapS": 10497,
      "wrapT": 10497
    }
  ],
  "scene": 0,
  "scenes": [
    {
      "name": "Sketchfab_Scene",
      "nodes": [
        0
      ]
    }
  ],
  "textures": [
    {
      "sampler": 0,
      "source": 0
    },
    {
      "sampler": 0,
      "source": 1
    }
  ]
}
